# xmcd
#
# Track frame offsets: 
#        182
#        18425
#        36732
#        55012
#
# Disc length: 1079 seconds
#
# Revision: 2
# Processed by: cddbd v1.5.2PL0 Copyright (c) Steve Scherf et al.
# Submitted via: ExactAudioCopy v1.3
#
DISCID=2f043504
DTITLE=Donell Jones - U Know What's Up
DYEAR=1999
DGENRE=Hip-Hop
TTITLE0=U Know What's Up (Clean Version)
TTITLE1=U Know What's Up (Album Version) (feat. Left-Eye)
TTITLE2=U Know What's Up (Instrumental)
TTITLE3=Album Snippets
EXTD=
EXTT0=
EXTT1=
EXTT2=
EXTT3=
PLAYORDER=
